<svg id="Layer_1" data-name="Layer 1" xmlns="http://www.w3.org/2000/svg" viewBox="0 0 52.4 57.96"><defs><style>.cls-1{fill:#1d1e1c;}.cls-2{fill:#c51618;}</style></defs><title>HomeElementos</title><g id="_Group_" data-name="&lt;Group&gt;"><g id="_Group_2" data-name="&lt;Group&gt;"><g id="_Group_3" data-name="&lt;Group&gt;"><g id="_Group_4" data-name="&lt;Group&gt;"><g id="_Group_5" data-name="&lt;Group&gt;"><g id="_Group_6" data-name="&lt;Group&gt;"><g id="_Group_7" data-name="&lt;Group&gt;"><g id="_Group_8" data-name="&lt;Group&gt;"><g id="_Group_9" data-name="&lt;Group&gt;"><path id="_Path_" data-name="&lt;Path&gt;" class="cls-1" d="M46.28,51c0-.27-.09-.89-1.18-.88L7,50.19c-1.18.05-1.33.63-1.53,1.43-.71,2.83-.67,2.63-1.3,5.27,0,.42-.24,1.1.76,1.07L25.1,53.29a6.61,6.61,0,0,1,1.72,0c7.64,1.83,12.82,2.84,20.42,4.67.66,0,.8-.42.71-.94-.82-3-.85-3-1.67-6"/></g></g><g id="_Group_10" data-name="&lt;Group&gt;"><g id="_Group_11" data-name="&lt;Group&gt;"><path id="_Path_2" data-name="&lt;Path&gt;" class="cls-1" d="M24,49.51c1.69,0,1.75-.56,1.75-1.63,0-17.56,0-30,0-47.59a.33.33,0,0,0-.62-.11c-1.78,5.83-3.93,10.1-6,15-.27.4-.53.5-1.48.52-6.12,0-9.92-.08-16,0-.81,0-1.63.2-1.65,1.76V47.8c0,.81.13,1.71,1.75,1.71H24Z"/></g></g><g id="_Group_12" data-name="&lt;Group&gt;"><g id="_Group_13" data-name="&lt;Group&gt;"><path id="_Path_3" data-name="&lt;Path&gt;" class="cls-1" d="M50.76,15.66c-6.07-.05-9.9.06-16,0-.94,0-1.2-.12-1.47-.52-2.12-5.05-4.13-9.38-6.05-15a.32.32,0,0,0-.61.11c0,17.56,0,30,0,47.59,0,1.07,0,1.63,1.73,1.63H50.67c1.63,0,1.73-.9,1.73-1.71V17.42c0-1.56-.82-1.74-1.64-1.76"/></g></g><g id="_Group_14" data-name="&lt;Group&gt;"><g id="_Group_15" data-name="&lt;Group&gt;"><path id="_Path_4" data-name="&lt;Path&gt;" class="cls-2" d="M24,37a12.35,12.35,0,0,1-.79,4.61A9.17,9.17,0,0,1,21,45a9.51,9.51,0,0,1-3.56,2.13,14.82,14.82,0,0,1-4.67.7c-3.56,0-6.35-.94-8.3-2.83s-3-4.55-3-8V18.6h7.1V36.52a17.79,17.79,0,0,0,.18,2.41,5.34,5.34,0,0,0,.66,2,3.59,3.59,0,0,0,1.28,1.26,3.87,3.87,0,0,0,2.06.49,3.71,3.71,0,0,0,2-.49A3.62,3.62,0,0,0,16,40.89a5.77,5.77,0,0,0,.71-2,13,13,0,0,0,.19-2.41V18.6H24Z"/></g></g><g id="_Group_16" data-name="&lt;Group&gt;"><g id="_Group_17" data-name="&lt;Group&gt;"><polygon id="_Path_5" data-name="&lt;Path&gt;" class="cls-2" points="41.23 47.34 34.29 26.19 34.29 47.34 28.24 47.34 28.24 18.6 37.89 18.6 44.82 39.77 44.82 18.6 50.88 18.6 50.88 47.34 41.23 47.34"/></g></g></g></g></g></g></g></g></g></svg>