<svg id="Layer_1" data-name="Layer 1" xmlns="http://www.w3.org/2000/svg" viewBox="0 0 110.19 110.19"><defs><style>.cls-1{fill:none;stroke:#1d1d1b;stroke-miterlimit:10;stroke-width:4.11px;}.cls-2{fill:#1d1d1b;}</style></defs><title>HomeElementos</title><circle class="cls-1" cx="55.1" cy="55.1" r="53.04"/><path class="cls-2" d="M56.36,17.61c1,.18,2,.3,2.89.57A12.51,12.51,0,0,1,68.7,28.46a28,28,0,0,1-1.41,16.66,12.76,12.76,0,0,1-13.63,7.93c-6.17-.62-9.75-4.25-11.58-9.89A30,30,0,0,1,41,31.21a16.53,16.53,0,0,1,2.33-7.6,12.79,12.79,0,0,1,8.84-5.74l1.37-.26Zm9.27,15.82c-.1-.88-.16-2.28-.4-3.65-.63-3.64-2.44-6.41-6.05-7.75a12.63,12.63,0,0,0-5.25-.68,9.23,9.23,0,0,0-8.74,7.1,21.68,21.68,0,0,0-.59,3.86A24,24,0,0,0,46,43.13c2.09,5.28,6.29,7,11.43,6.06,3.37-.6,5.44-2.82,6.71-5.86A25.11,25.11,0,0,0,65.63,33.43Z"/><path class="cls-2" d="M54.33,83.5a55.52,55.52,0,0,1-22.77-4.88c-.91-.42-1.78-.94-2.68-1.39a2.43,2.43,0,0,1-1.35-1.83,25.58,25.58,0,0,1-.43-6.59,15.76,15.76,0,0,1,1.08-5.52,8.12,8.12,0,0,1,5.58-4.91,38.58,38.58,0,0,0,10.76-4.93,1.86,1.86,0,0,1,2.65.2,1.84,1.84,0,0,1-.54,2.81A43,43,0,0,1,37.7,61a16.92,16.92,0,0,1-2.38.77c-2.6.56-3.87,2.29-4.29,4.77a26.05,26.05,0,0,0-.12,7.11,1,1,0,0,0,.61.88A47.77,47.77,0,0,0,45.33,79a57,57,0,0,0,18.89.12,45.9,45.9,0,0,0,14.43-4.63,1.23,1.23,0,0,0,.56-.75A23.57,23.57,0,0,0,79,66.05a5.23,5.23,0,0,0-4-4.26A40.36,40.36,0,0,1,63.55,56.5a1.87,1.87,0,0,1-1-2,1.76,1.76,0,0,1,1.34-1.48,2,2,0,0,1,1.7.37,40.11,40.11,0,0,0,8.55,4.25c.61.21,1.22.42,1.84.58a8.3,8.3,0,0,1,6.44,6.39,24.66,24.66,0,0,1,.2,10.78,2.45,2.45,0,0,1-1.32,1.79,47.66,47.66,0,0,1-13.58,5A63.1,63.1,0,0,1,54.33,83.5Z"/></svg>