<?xml version="1.0" encoding="utf-8"?>
<!-- Generator: Adobe Illustrator 24.0.1, SVG Export Plug-In . SVG Version: 6.00 Build 0)  -->
<svg version="1.1" id="Layer_1" xmlns="http://www.w3.org/2000/svg" xmlns:xlink="http://www.w3.org/1999/xlink" x="0px" y="0px"
	 viewBox="0 0 110.2 110.2" style="enable-background:new 0 0 110.2 110.2;" xml:space="preserve">
<style type="text/css">
	.st0{fill:none;stroke:#FFFFFF;stroke-width:4.11;stroke-miterlimit:10;}
	.st1{fill:#FFFFFF;}
</style>
<title>HomeElementos</title>
<circle class="st0" cx="55.1" cy="55.1" r="53"/>
<path class="st1" d="M56.4,17.6c1,0.2,2,0.3,2.9,0.6c4.9,1.2,8.7,5.3,9.4,10.3c1.2,5.6,0.7,11.4-1.4,16.7c-2.2,5.5-7.8,8.7-13.6,7.9
	c-6.2-0.6-9.8-4.2-11.6-9.9c-1.2-3.9-1.5-7.9-1.1-12c0.1-2.7,0.9-5.3,2.3-7.6c2-3.1,5.2-5.2,8.8-5.7l1.4-0.3L56.4,17.6z M65.6,33.4
	c-0.1-0.9-0.2-2.3-0.4-3.6c-0.6-3.6-2.4-6.4-6-7.8c-1.7-0.6-3.5-0.8-5.2-0.7c-4.2,0.1-7.8,3-8.7,7.1c-0.3,1.3-0.5,2.6-0.6,3.9
	c-0.4,3.7,0.1,7.4,1.4,10.8c2.1,5.3,6.3,7,11.4,6.1c3.4-0.6,5.4-2.8,6.7-5.9C65.3,40.2,65.8,36.8,65.6,33.4z"/>
<path class="st1" d="M54.3,83.5c-7.8,0-15.6-1.7-22.8-4.9c-0.9-0.4-1.8-0.9-2.7-1.4c-0.7-0.3-1.2-1-1.4-1.8
	c-0.4-2.2-0.6-4.4-0.4-6.6c0-1.9,0.4-3.8,1.1-5.5c1-2.4,3-4.3,5.6-4.9c3.8-1.1,7.4-2.7,10.8-4.9c0.8-0.7,1.9-0.6,2.6,0.2
	c0,0,0,0,0,0c0.7,0.8,0.6,1.9-0.2,2.6c-0.1,0.1-0.2,0.2-0.3,0.2c-2.8,1.9-5.8,3.4-8.9,4.5c-0.8,0.3-1.6,0.6-2.4,0.8
	c-2.6,0.6-3.9,2.3-4.3,4.8c-0.4,2.4-0.4,4.7-0.1,7.1c0,0.4,0.3,0.7,0.6,0.9c4.3,2.2,9,3.7,13.8,4.5c6.2,1.1,12.6,1.1,18.9,0.1
	c5-0.7,9.9-2.3,14.4-4.6c0.3-0.2,0.5-0.4,0.6-0.8c0.4-2.6,0.3-5.2-0.2-7.7c-0.3-2.1-1.9-3.8-4-4.3c-4.1-1.2-7.9-2.9-11.5-5.3
	c-0.7-0.4-1.1-1.2-1-2c0.1-0.7,0.6-1.3,1.3-1.5c0.6-0.1,1.2,0,1.7,0.4c2.7,1.8,5.5,3.2,8.6,4.2c0.6,0.2,1.2,0.4,1.8,0.6
	c3.2,0.7,5.8,3.2,6.4,6.4c0.9,3.5,0.9,7.2,0.2,10.8c-0.1,0.8-0.6,1.4-1.3,1.8c-4.2,2.3-8.8,4-13.6,5C63.3,83.1,58.8,83.5,54.3,83.5z
	"/>
</svg>
