<?xml version="1.0" encoding="utf-8"?>
<!-- Generator: Adobe Illustrator 24.0.1, SVG Export Plug-In . SVG Version: 6.00 Build 0)  -->
<svg version="1.1" id="Layer_1" xmlns="http://www.w3.org/2000/svg" xmlns:xlink="http://www.w3.org/1999/xlink" x="0px" y="0px"
	 viewBox="0 0 110.2 110.2" style="enable-background:new 0 0 110.2 110.2;" xml:space="preserve">
<style type="text/css">
	.st0{fill:#FFFFFF;}
	.st1{fill:none;stroke:#FFFFFF;stroke-width:4.11;stroke-miterlimit:10;}
</style>
<title>HomeElementos</title>
<path class="st0" d="M82.4,79.4L73.7,81v-6.3C68.3,78.9,63.6,81,59,81c-6.7,0-11.2-4-11.2-10.3c0-8.5,8.5-12.7,25.8-12.9
	c-0.1-5.7-2.9-8.5-8.2-8.5c-4.2,0-8.8,1.8-13.4,5.2l-0.2-0.1l1.7-9.1c4-2.6,8.7-3.9,13.5-3.8c10,0,15.4,5.7,15.4,16.2L82.4,79.4z
	 M61.4,74.1c3,0,6.9-1.4,12.2-4.2v-7.1c-11.6,0.8-17.2,3-17.2,7.2C56.4,72.5,58.2,74.1,61.4,74.1z"/>
<path class="st0" d="M44.6,47.2l-2.6,0.7v-3.8C38.7,46.8,36,48,33.5,48c-3.4,0-5.8-2.1-5.8-5.2c0-4.5,4.6-6.6,14.3-6.8v-0.5
	c0-3.6-1.8-5.6-5-5.6c-2.7,0.1-5.2,1.1-7.2,2.9h-0.1l0.6-3c2.1-1.5,4.6-2.3,7.1-2.2c4.6,0,7.3,2.8,7.3,7.8L44.6,47.2z M33.9,45.7
	c2.1,0,4.6-1.1,8-3.4v-4.6c-7.9,0.4-11.7,1.9-11.7,4.9C30.2,44.4,31.7,45.7,33.9,45.7z"/>
<circle class="st1" cx="55.1" cy="55.1" r="53"/>
</svg>
