<svg id="Layer_1" data-name="Layer 1" xmlns="http://www.w3.org/2000/svg" viewBox="0 0 110.19 110.19"><defs><style>.cls-1{fill:#1d1d1b;}.cls-2{fill:none;stroke:#1d1d1b;stroke-miterlimit:10;stroke-width:4.11px;}</style></defs><title>HomeElementos</title><path class="cls-1" d="M82.43,79.45,73.67,81V74.69C68.31,78.92,63.62,81,59,81c-6.73,0-11.18-4-11.18-10.28,0-8.53,8.46-12.69,25.76-12.91-.08-5.67-2.95-8.54-8.16-8.54-4.23,0-8.76,1.82-13.37,5.22l-.23-.08L53.5,45.3A24.33,24.33,0,0,1,67,41.45c10,0,15.41,5.67,15.41,16.24Zm-21-5.37c3,0,6.95-1.43,12.17-4.23v-7.1c-11.56.84-17.23,3-17.23,7.25C56.37,72.5,58.18,74.08,61.43,74.08Z"/><path class="cls-1" d="M44.57,47.16l-2.64.72V44.12C38.69,46.8,36.05,48,33.45,48c-3.4,0-5.84-2.12-5.84-5.2,0-4.52,4.6-6.64,14.32-6.84v-.48c0-3.56-1.8-5.56-5-5.56a12,12,0,0,0-7.24,2.88l-.08,0,.56-3a12.1,12.1,0,0,1,7.12-2.24c4.64,0,7.32,2.84,7.32,7.84ZM33.93,45.68c2.08,0,4.6-1.08,8-3.36V37.76c-7.88.36-11.68,1.88-11.68,4.88C30.25,44.44,31.73,45.68,33.93,45.68Z"/><circle class="cls-2" cx="55.1" cy="55.1" r="53.04"/></svg>