<svg id="Layer_1" data-name="Layer 1" xmlns="http://www.w3.org/2000/svg" viewBox="0 0 110.39 110.38"><title>HomeElementos</title><g id="_Group_" data-name="&lt;Group&gt;"><path id="_Compound_Path_" data-name="&lt;Compound Path&gt;" d="M82.48,76l9.23,9.19q8.52,8.52,17.05,17a4.64,4.64,0,0,1,1.51,4.47,4.57,4.57,0,0,1-7.67,2.35c-1.88-1.78-3.68-3.65-5.51-5.48L76.85,83.38c-.26-.26-.54-.51-.85-.81-11.86,9.19-25.13,12.51-39.81,9.27A44.66,44.66,0,0,1,9,74c-13.74-18.83-11.54-44.8,4.8-60.69A46.62,46.62,0,0,1,74.77,9.57a46.52,46.52,0,0,1,17.72,44A46.4,46.4,0,0,1,82.48,76Zm1.31-29.55a37.29,37.29,0,1,0-37.25,37.3A37.36,37.36,0,0,0,83.79,46.48Z"/></g></svg>